<svg width="39" height="42" viewBox="0 0 39 42" fill="none" xmlns="http://www.w3.org/2000/svg">
<g id="fi_626013">
<g id="Group">
<g id="Group_2">
<path id="Vector" d="M21.5844 3.50351C21.2811 3.63409 21.0833 3.9388 21.0833 4.27695L21.0833 13.4494L0.81092 13.4494C0.363306 13.4494 -1.08127e-06 13.8244 -1.06108e-06 14.2864L-4.75655e-07 27.6793C-4.55458e-07 28.1414 0.363306 28.5164 0.810921 28.5164L21.0833 28.5164L21.0833 37.724C21.0833 38.0621 21.2812 38.3668 21.5829 38.4974C21.8861 38.6263 22.2348 38.556 22.4668 38.3166L38.6977 21.6174C38.8501 21.46 38.9361 21.2474 38.9361 21.0247C38.9361 20.8021 38.8501 20.5894 38.6993 20.4321L22.4684 3.68431C22.2364 3.44489 21.8877 3.37293 21.5844 3.50351Z" fill="#EF7F1A"/>
</g>
</g>
</g>
</svg>
